<svg width="20" height="20" viewBox="0 0 20 20" fill="none" xmlns="http://www.w3.org/2000/svg">
<g clip-path="url(#clip0_1521_516)">
<path d="M9.99303 18.3205C14.5922 18.3205 18.3205 14.5922 18.3205 9.99303C18.3205 5.39388 14.5922 1.66553 9.99303 1.66553C5.39388 1.66553 1.66553 5.39388 1.66553 9.99303C1.66553 14.5922 5.39388 18.3205 9.99303 18.3205Z" stroke="#0A0A0A" stroke-width="1.6655" stroke-linecap="round" stroke-linejoin="round"/>
<path d="M9.99311 13.324C11.8328 13.324 13.3241 11.8326 13.3241 9.99299C13.3241 8.15333 11.8328 6.66199 9.99311 6.66199C8.15345 6.66199 6.66211 8.15333 6.66211 9.99299C6.66211 11.8326 8.15345 13.324 9.99311 13.324Z" stroke="#0A0A0A" stroke-width="1.6655" stroke-linecap="round" stroke-linejoin="round"/>
<path d="M17.6292 6.66199H9.99292" stroke="#0A0A0A" stroke-width="1.6655" stroke-linecap="round" stroke-linejoin="round"/>
<path d="M3.28931 5.04645L7.11163 11.6585" stroke="#0A0A0A" stroke-width="1.6655" stroke-linecap="round" stroke-linejoin="round"/>
<path d="M9.0603 18.2705L12.8743 11.6585" stroke="#0A0A0A" stroke-width="1.6655" stroke-linecap="round" stroke-linejoin="round"/>
</g>
<defs>
<clipPath id="clip0_1521_516">
<rect width="19.986" height="19.986" fill="white"/>
</clipPath>
</defs>
</svg>
