<svg width="24" height="24" viewBox="0 0 24 24" fill="none" xmlns="http://www.w3.org/2000/svg">
<path d="M1.95634 19.9788C1.41836 19.8645 0.998533 19.575 0.696857 19.1105C0.395181 18.6459 0.301519 18.1447 0.415871 17.6067L2.91082 5.86893C3.02517 5.33095 3.31461 4.91112 3.77915 4.60945C4.24369 4.30777 4.74495 4.21411 5.28293 4.32846L9.19553 5.16011L9.61135 3.20381C9.7257 2.66583 10.0151 2.246 10.4797 1.94433C10.9442 1.64265 11.4455 1.54899 11.9835 1.66334L15.8961 2.49499C16.434 2.60934 16.8539 2.89879 17.1555 3.36333C17.4572 3.82787 17.5509 4.32913 17.4365 4.86711L17.0207 6.8234L20.9333 7.65505C21.4713 7.7694 21.8911 8.05885 22.1928 8.52339C22.4945 8.98793 22.5881 9.48919 22.4738 10.0272L19.9788 21.7649C19.8645 22.3029 19.575 22.7228 19.1105 23.0244C18.646 23.3261 18.1447 23.4198 17.6067 23.3054L1.95634 19.9788ZM2.37217 18.0225L18.0225 21.3491L20.5175 9.61135L4.86711 6.28476L2.37217 18.0225ZM11.1518 5.57593L15.0644 6.40758L15.4802 4.45128L11.5676 3.61964L11.1518 5.57593ZM2.37217 18.0225L4.86711 6.28476L2.37217 18.0225ZM10.2588 14.5872L9.63503 17.5216L11.5913 17.9374L12.2151 15.003L15.1495 15.6267L15.5653 13.6704L12.6309 13.0467L13.2546 10.1123L11.2983 9.69644L10.6746 12.6309L7.74014 12.0071L7.32432 13.9634L10.2588 14.5872Z" fill="#C6102E"/>
</svg>
