<svg width="78" height="17" viewBox="0 0 78 17" fill="none" xmlns="http://www.w3.org/2000/svg">
<path d="M0 0H8.33333V6.54167C8.33333 6.86111 8.26389 7.14583 8.125 7.39583C7.98611 7.64583 7.79167 7.84722 7.54167 8L4.58333 9.75L5.16667 11.6667H8.33333L5.75 13.5L6.75 16.6667L4.16667 14.7083L1.58333 16.6667L2.58333 13.5L0 11.6667H3.16667L3.75 9.75L0.791667 8C0.541667 7.84722 0.347222 7.64583 0.208333 7.39583C0.0694444 7.14583 0 6.86111 0 6.54167V0ZM1.66667 1.66667V6.54167L3.33333 7.54167V1.66667H1.66667ZM6.66667 1.66667H5V7.54167L6.66667 6.54167V1.66667Z" fill="#C6102E"/>
</svg>
