<svg width="13" height="17" viewBox="0 0 13 17" fill="none" xmlns="http://www.w3.org/2000/svg">
<path d="M6.25 16.6667C5.79167 16.6667 5.39931 16.5035 5.07292 16.1771C4.74653 15.8507 4.58333 15.4583 4.58333 15H7.91667C7.91667 15.4583 7.75347 15.8507 7.42708 16.1771C7.10069 16.5035 6.70833 16.6667 6.25 16.6667V16.6667M2.91667 14.1667V12.5H9.58333V14.1667H2.91667V14.1667M3.125 11.6667C2.16667 11.0972 1.40625 10.3333 0.84375 9.375C0.28125 8.41667 0 7.375 0 6.25C0 4.51389 0.607639 3.03819 1.82292 1.82292C3.03819 0.607639 4.51389 0 6.25 0C7.98611 0 9.46181 0.607639 10.6771 1.82292C11.8924 3.03819 12.5 4.51389 12.5 6.25C12.5 7.375 12.2188 8.41667 11.6562 9.375C11.0938 10.3333 10.3333 11.0972 9.375 11.6667H3.125V11.6667M3.625 10H8.875C9.5 9.55556 9.98264 9.00694 10.3229 8.35417C10.6632 7.70139 10.8333 7 10.8333 6.25C10.8333 4.97222 10.3889 3.88889 9.5 3C8.61111 2.11111 7.52778 1.66667 6.25 1.66667C4.97222 1.66667 3.88889 2.11111 3 3C2.11111 3.88889 1.66667 4.97222 1.66667 6.25C1.66667 7 1.83681 7.70139 2.17708 8.35417C2.51736 9.00694 3 9.55556 3.625 10V10M6.25 10V10V10V10V10V10V10V10V10V10V10" fill="#C8102E"/>
</svg>
