<svg width="18" height="18" viewBox="0 0 18 18" fill="none" xmlns="http://www.w3.org/2000/svg">
<g clip-path="url(#clip0_2033_309)">
<path d="M8.4375 15.1875C8.4375 15.3367 8.37824 15.4798 8.27275 15.5852C8.16726 15.6907 8.02418 15.75 7.875 15.75H3.375C3.22582 15.75 3.08274 15.6907 2.97725 15.5852C2.87176 15.4798 2.8125 15.3367 2.8125 15.1875V2.8125C2.8125 2.66332 2.87176 2.52024 2.97725 2.41475C3.08274 2.30926 3.22582 2.25 3.375 2.25H7.875C8.02418 2.25 8.16726 2.30926 8.27275 2.41475C8.37824 2.52024 8.4375 2.66332 8.4375 2.8125C8.4375 2.96168 8.37824 3.10476 8.27275 3.21025C8.16726 3.31574 8.02418 3.375 7.875 3.375H3.9375V14.625H7.875C8.02418 14.625 8.16726 14.6843 8.27275 14.7898C8.37824 14.8952 8.4375 15.0383 8.4375 15.1875ZM16.148 8.60203L13.3355 5.78953C13.2568 5.71077 13.1565 5.65713 13.0474 5.63539C12.9382 5.61365 12.825 5.62479 12.7222 5.6674C12.6193 5.71001 12.5315 5.78218 12.4697 5.87476C12.4079 5.96734 12.3749 6.07618 12.375 6.1875V8.4375H7.875C7.72582 8.4375 7.58274 8.49676 7.47725 8.60225C7.37176 8.70774 7.3125 8.85082 7.3125 9C7.3125 9.14918 7.37176 9.29226 7.47725 9.39775C7.58274 9.50324 7.72582 9.5625 7.875 9.5625H12.375V11.8125C12.3749 11.9238 12.4079 12.0327 12.4697 12.1252C12.5315 12.2178 12.6193 12.29 12.7222 12.3326C12.825 12.3752 12.9382 12.3864 13.0474 12.3646C13.1565 12.3429 13.2568 12.2892 13.3355 12.2105L16.148 9.39797C16.2003 9.34573 16.2418 9.28369 16.2701 9.2154C16.2984 9.14712 16.3129 9.07392 16.3129 9C16.3129 8.92608 16.2984 8.85288 16.2701 8.7846C16.2418 8.71631 16.2003 8.65427 16.148 8.60203Z" fill="#C6102E"/>
</g>
<defs>
<clipPath id="clip0_2033_309">
<rect width="18" height="18" fill="white"/>
</clipPath>
</defs>
</svg>
