<svg width="15" height="14" viewBox="0 0 15 14" fill="none" xmlns="http://www.w3.org/2000/svg">
<path d="M0 8.33333V6.66667H5.83333V8.33333H0V8.33333M0 5V3.33333H9.16667V5H0V5M0 1.66667V0H9.16667V1.66667H0V1.66667M7.5 13.3333V10.7708L12.1042 6.1875C12.2292 6.0625 12.3681 5.97222 12.5208 5.91667C12.6736 5.86111 12.8264 5.83333 12.9792 5.83333C13.1458 5.83333 13.3056 5.86458 13.4583 5.92708C13.6111 5.98958 13.75 6.08333 13.875 6.20833L14.6458 6.97917C14.7569 7.10417 14.8438 7.24306 14.9062 7.39583C14.9688 7.54861 15 7.70139 15 7.85417C15 8.00694 14.9722 8.16319 14.9167 8.32292C14.8611 8.48264 14.7708 8.625 14.6458 8.75L10.0625 13.3333H7.5V13.3333M13.75 7.85417V7.85417L12.9792 7.08333V7.08333L13.75 7.85417V7.85417M8.75 12.0833H9.54167L12.0625 9.54167L11.6875 9.14583L11.2917 8.77083L8.75 11.2917V12.0833V12.0833M11.6875 9.14583L11.2917 8.77083V8.77083L12.0625 9.54167V9.54167L11.6875 9.14583V9.14583" fill="#C8102E"/>
</svg>
