<svg width="256" height="256" viewBox="0 0 256 256" fill="none" xmlns="http://www.w3.org/2000/svg">
<path d="M63.9949 144.015C63.9949 108.671 92.6464 80.0196 127.99 80.0196C163.333 80.0196 191.985 108.671 191.985 144.015C191.985 179.358 163.333 208.009 127.99 208.009C92.6464 208.009 63.9949 179.358 63.9949 144.015Z" fill="url(#paint0_linear_1529_4676)"/>
<g opacity="0.779072">
<path d="M111.984 72.0214C111.984 63.1869 119.146 56.0251 127.98 56.0251C136.815 56.0251 143.977 63.1869 143.977 72.0214V104.014H111.984V72.0214Z" fill="url(#paint1_linear_1529_4676)"/>
</g>
<path d="M105.981 116.03C105.981 113.822 107.771 112.031 109.98 112.031C112.188 112.031 113.979 113.822 113.979 116.03V124.029C113.979 126.237 112.188 128.028 109.98 128.028C107.771 128.028 105.981 126.237 105.981 124.029V116.03Z" fill="#9F2D00"/>
<path d="M103.986 138.011C103.986 134.701 106.669 132.017 109.98 132.017C113.29 132.017 115.974 134.701 115.974 138.011C115.974 141.321 113.29 144.005 109.98 144.005C106.669 144.005 103.986 141.321 103.986 138.011Z" fill="white"/>
<path d="M105.971 138.011C105.971 135.802 107.762 134.012 109.97 134.012C112.179 134.012 113.969 135.802 113.969 138.011C113.969 140.22 112.179 142.01 109.97 142.01C107.762 142.01 105.971 140.22 105.971 138.011Z" fill="#101828"/>
<path d="M141.963 116.03C141.963 113.822 143.754 112.031 145.962 112.031C148.171 112.031 149.961 113.822 149.961 116.03V124.029C149.961 126.237 148.171 128.028 145.962 128.028C143.754 128.028 141.963 126.237 141.963 124.029V116.03Z" fill="#9F2D00"/>
<path d="M139.968 138.011C139.968 134.701 142.652 132.017 145.962 132.017C149.273 132.017 151.956 134.701 151.956 138.011C151.956 141.321 149.273 144.005 145.962 144.005C142.652 144.005 139.968 141.321 139.968 138.011Z" fill="white"/>
<path d="M141.954 138.011C141.954 135.802 143.744 134.012 145.953 134.012C148.161 134.012 149.952 135.802 149.952 138.011C149.952 140.22 148.161 142.01 145.953 142.01C143.744 142.01 141.954 140.22 141.954 138.011Z" fill="#101828"/>
<mask id="path-9-inside-1_1529_4676" fill="white">
<path d="M103.986 152.003H151.975C151.975 165.255 141.232 175.998 127.98 175.998C114.729 175.998 103.986 165.255 103.986 152.003Z"/>
</mask>
<path d="M103.986 152.003H151.975H103.986M155.605 152.003C155.605 167.26 143.237 179.628 127.98 179.628V179.628C112.724 179.628 100.355 167.26 100.355 152.003L107.616 152.003C107.616 163.25 116.734 172.367 127.98 172.367V172.367C139.227 172.367 148.345 163.25 148.345 152.003L155.605 152.003ZM127.98 179.628C112.724 179.628 100.355 167.26 100.355 152.003V152.003H107.616V152.003C107.616 163.25 116.734 172.367 127.98 172.367V179.628ZM155.605 152.003V152.003C155.605 167.26 143.237 179.628 127.98 179.628V172.367C139.227 172.367 148.345 163.25 148.345 152.003V152.003H155.605Z" fill="white" mask="url(#path-9-inside-1_1529_4676)"/>
<path d="M34.0116 143.518C31.4511 131.472 39.1407 119.631 51.1867 117.07L75.2901 111.947C87.3361 109.387 99.177 117.076 101.737 129.122C104.298 141.168 96.6083 153.009 84.5624 155.569L60.4589 160.693C48.4129 163.253 36.5721 155.564 34.0116 143.518Z" fill="url(#paint2_linear_1529_4676)"/>
<path d="M152.729 143.518C155.29 131.472 167.13 123.782 179.176 126.343L203.28 131.466C215.326 134.026 223.015 145.867 220.455 157.913C217.894 169.959 206.054 177.649 194.008 175.088L169.904 169.965C157.858 167.405 150.169 155.564 152.729 143.518Z" fill="url(#paint3_linear_1529_4676)"/>
<defs>
<linearGradient id="paint0_linear_1529_4676" x1="63.9949" y1="80.0196" x2="191.985" y2="208.009" gradientUnits="userSpaceOnUse">
<stop stop-color="#FF8904"/>
<stop offset="1" stop-color="#FF6900"/>
</linearGradient>
<linearGradient id="paint1_linear_1529_4676" x1="127.98" y1="104.014" x2="127.98" y2="56.0251" gradientUnits="userSpaceOnUse">
<stop stop-color="#FF8904"/>
<stop offset="0.5" stop-color="#FFB86A"/>
<stop offset="1" stop-color="#FFF085"/>
</linearGradient>
<linearGradient id="paint2_linear_1529_4676" x1="34.0116" y1="143.518" x2="101.737" y2="129.122" gradientUnits="userSpaceOnUse">
<stop stop-color="#FF6900"/>
<stop offset="1" stop-color="#FF8904"/>
</linearGradient>
<linearGradient id="paint3_linear_1529_4676" x1="220.455" y1="157.913" x2="152.729" y2="143.518" gradientUnits="userSpaceOnUse">
<stop stop-color="#FF6900"/>
<stop offset="1" stop-color="#FF8904"/>
</linearGradient>
</defs>
</svg>
