<svg width="20" height="20" viewBox="0 0 20 20" fill="none" xmlns="http://www.w3.org/2000/svg">
<path d="M18 0H1.96875C0.890625 0 0 0.890625 0 1.96875V12.9844C0 14.1094 0.890625 15 1.96875 15H6V19.9688L9.98438 18L13.9688 19.9688V15H18C19.0781 15 19.9688 14.1094 19.9688 12.9844V1.96875C19.9688 0.890625 19.0781 0 18 0V0M18 12.9844H1.96875V10.9688H18V12.9844V12.9844M18 7.96875H1.96875V3C1.96875 2.4375 2.4375 1.96875 3 1.96875H16.9688C17.5312 1.96875 18 2.4375 18 3V7.96875V7.96875" fill="#3B82F6"/>
</svg>
