<svg width="24" height="23" viewBox="0 0 24 23" fill="none" xmlns="http://www.w3.org/2000/svg">
<path d="M3.95024 22.743L3.53441 20.7867L12.3377 18.9154L10.0143 7.98465C9.55928 7.92802 9.14396 7.77775 8.76838 7.53384C8.39279 7.28994 8.08659 6.97164 7.84977 6.57897L4.74415 7.23909L9.13398 13.4624C9.30724 14.2775 9.12031 15.0414 8.57319 15.7541C8.02607 16.4667 7.27974 16.9235 6.3342 17.1245C5.38865 17.3255 4.52104 17.2117 3.73136 16.7832C2.94167 16.3547 2.4602 15.7329 2.28694 14.9178L3.766 7.447L1.80971 7.86282L1.39388 5.90653L7.43395 4.62267C7.50829 4.0105 7.75917 3.4673 8.18658 2.99308C8.61399 2.51885 9.14559 2.21416 9.78139 2.07902C10.4172 1.94388 11.0268 2.006 11.6101 2.26538C12.1934 2.52477 12.6436 2.91896 12.9605 3.44797L19.0005 2.16411L19.4164 4.12041L17.4601 4.53623L21.8499 10.7595C22.0232 11.5747 21.8362 12.3385 21.2891 13.0512C20.742 13.7639 19.9957 14.2207 19.0501 14.4217C18.1046 14.6226 17.237 14.5089 16.4473 14.0804C15.6576 13.6519 15.1761 13.03 15.0029 12.2149L16.4819 4.74414L13.3763 5.40426C13.3197 5.85931 13.1694 6.27463 12.9255 6.65022C12.6816 7.0258 12.3633 7.332 11.9706 7.56882L14.294 18.4996L23.0974 16.6284L23.5132 18.5847L3.95024 22.743ZM16.5924 11.8771L20.2604 11.0974L17.522 7.23228L16.5924 11.8771ZM3.87643 14.5799L7.54449 13.8002L4.80604 9.93513L3.87643 14.5799ZM10.613 5.99161C10.8902 5.93271 11.1026 5.78959 11.2502 5.56226C11.3978 5.33493 11.4422 5.0827 11.3833 4.80555C11.3244 4.52841 11.1812 4.31603 10.9539 4.1684C10.7266 4.02077 10.4744 3.97641 10.1972 4.03532C9.92007 4.09423 9.70769 4.23735 9.56006 4.46467C9.41243 4.692 9.36807 4.94424 9.42698 5.22138C9.48589 5.49852 9.62901 5.71091 9.85633 5.85853C10.0837 6.00616 10.3359 6.05052 10.613 5.99161Z" fill="#C6102E"/>
</svg>
