<svg width="24" height="21" viewBox="0 0 24 21" fill="none" xmlns="http://www.w3.org/2000/svg">
<path d="M-0.000104348 17.9015L0.292574 15.1169C0.350064 14.5699 0.544961 14.0708 0.877264 13.6198C1.20957 13.1687 1.63742 12.845 2.16081 12.6486C3.05145 12.3065 4.04286 12.042 5.13504 11.8552C6.22722 11.6683 7.41146 11.6419 8.68777 11.7761C9.96407 11.9102 11.117 12.1822 12.1464 12.5921C13.1759 13.0019 14.0906 13.4668 14.8907 13.9866C15.3618 14.2875 15.713 14.6931 15.9443 15.2034C16.1755 15.7137 16.2624 16.2423 16.2049 16.7893L15.9122 19.574L-0.000104348 17.9015ZM2.198 16.1215L14.1323 17.3759L14.2159 16.5802C14.235 16.3979 14.2069 16.2274 14.1314 16.0686C14.0559 15.9099 13.9479 15.7812 13.8075 15.6826C13.2421 15.3216 12.5069 14.9426 11.6017 14.5458C10.6966 14.1491 9.65556 13.8888 8.47871 13.7651C7.30186 13.6414 6.2295 13.6796 5.26164 13.8795C4.29377 14.0794 3.4958 14.2972 2.86773 14.5328C2.70984 14.6 2.57747 14.7034 2.47063 14.843C2.36379 14.9826 2.30078 15.1436 2.28162 15.3259L2.198 16.1215ZM8.7923 10.7816C7.69832 10.6666 6.80275 10.1786 6.10559 9.31771C5.40843 8.45679 5.11734 7.47934 5.23232 6.38536L4.98369 6.35923C4.83451 6.34355 4.71913 6.28534 4.63755 6.18459C4.55596 6.08385 4.52301 5.95888 4.53869 5.80971C4.55437 5.66053 4.61258 5.54515 4.71333 5.46356C4.81408 5.38198 4.93904 5.34903 5.08822 5.36471L5.33685 5.39084C5.41524 4.64495 5.66813 3.99281 6.0955 3.43442C6.52288 2.87604 7.05321 2.45416 7.68651 2.1688L7.58721 3.11359C7.57153 3.26277 7.60448 3.38773 7.68607 3.48848C7.76765 3.58923 7.88303 3.64744 8.03221 3.66312C8.18139 3.6788 8.30635 3.64584 8.4071 3.56426C8.50784 3.48268 8.56605 3.3673 8.58173 3.21812L8.72285 1.87552C8.87725 1.84147 9.03864 1.82072 9.207 1.81328C9.37537 1.80584 9.55072 1.8117 9.73305 1.83087C9.91538 1.85003 10.0881 1.88075 10.2513 1.92304C10.4144 1.96532 10.5679 2.01917 10.7119 2.08457L10.5708 3.42718C10.5551 3.57635 10.588 3.70132 10.6696 3.80206C10.7512 3.90281 10.8666 3.96102 11.0158 3.9767C11.165 3.99238 11.2899 3.95943 11.3907 3.87785C11.4914 3.79626 11.5496 3.68088 11.5653 3.5317L11.6646 2.58691C12.2247 2.99771 12.6558 3.52063 12.9577 4.15567C13.2596 4.79071 13.3714 5.48117 13.293 6.22706L13.5417 6.2532C13.6908 6.26888 13.8062 6.32709 13.8878 6.42784C13.9694 6.52858 14.0023 6.65354 13.9867 6.80272C13.971 6.9519 13.9128 7.06728 13.812 7.14886C13.7113 7.23045 13.5863 7.2634 13.4371 7.24772L13.1885 7.22159C13.0735 8.31556 12.5856 9.21113 11.7246 9.90829C10.8637 10.6055 9.88627 10.8965 8.7923 10.7816ZM9.00135 8.79252C9.54834 8.85001 10.0371 8.70446 10.4675 8.35588C10.898 8.0073 11.142 7.55952 11.1995 7.01253L7.22136 6.59442C7.16387 7.14141 7.30942 7.63013 7.658 8.06059C8.00658 8.49105 8.45436 8.73503 9.00135 8.79252ZM16.0422 13.5546L15.9714 12.793C15.8754 12.7494 15.784 12.7021 15.6972 12.6511C15.6104 12.6 15.5299 12.5287 15.4557 12.4371L14.7334 12.6126L14.3303 11.6653L14.9295 11.2255C14.9347 11.1758 14.94 11.1261 14.9452 11.0763C14.9504 11.0266 14.9556 10.9769 14.9609 10.9271C14.9661 10.8774 14.9713 10.8277 14.9765 10.778C14.9818 10.7282 14.987 10.6785 14.9922 10.6288L14.4975 10.074L15.0888 9.23124L15.7589 9.55304C15.8321 9.4937 15.9211 9.4444 16.0258 9.40513C16.1305 9.36585 16.2343 9.33487 16.3372 9.31217L16.5648 8.58196L17.5593 8.68649L17.6301 9.44806C17.7261 9.49166 17.8212 9.54355 17.9154 9.60373C18.0096 9.66391 18.0864 9.73063 18.1457 9.8039L18.868 9.62844L19.2712 10.5758L18.672 11.0155C18.6667 11.0653 18.6615 11.115 18.6563 11.1647C18.6511 11.2145 18.6458 11.2642 18.6406 11.3139C18.6354 11.3636 18.6301 11.4134 18.6249 11.4631C18.6197 11.5128 18.6145 11.5625 18.6092 11.6123L19.104 12.167L18.5126 13.0098L17.8426 12.688C17.751 12.7622 17.6575 12.8152 17.5619 12.8471C17.4664 12.8789 17.3672 12.9062 17.2643 12.9289L17.0367 13.6591L16.0422 13.5546ZM16.7223 11.8664C16.9212 11.8873 17.1031 11.831 17.268 11.6975C17.4328 11.564 17.5257 11.3978 17.5466 11.1989C17.5675 11 17.5112 10.8181 17.3777 10.6533C17.2442 10.4884 17.078 10.3955 16.8791 10.3746C16.6802 10.3537 16.4983 10.41 16.3335 10.5435C16.1686 10.677 16.0757 10.8432 16.0548 11.0421C16.0339 11.241 16.0902 11.4229 16.2237 11.5878C16.3572 11.7526 16.5234 11.8455 16.7223 11.8664ZM18.8522 8.82237L18.763 7.75722C18.6191 7.69181 18.4889 7.61528 18.3724 7.52763C18.2559 7.43997 18.1532 7.34119 18.0642 7.23129L16.9834 7.46961L16.4126 6.20302L17.3364 5.54598C17.3119 5.45962 17.3023 5.39157 17.3075 5.34185C17.3128 5.29212 17.3197 5.22582 17.3285 5.14294C17.3372 5.06006 17.3441 4.99376 17.3494 4.94404C17.3546 4.89431 17.3781 4.82975 17.42 4.75036L16.653 3.91562L17.4746 2.79536L18.4823 3.2532C18.5922 3.1642 18.7132 3.08894 18.8454 3.02741C18.9775 2.96589 19.1208 2.91811 19.2752 2.88406L19.5839 1.86072L20.9762 2.00706L21.0654 3.07221C21.2093 3.13762 21.3395 3.21415 21.456 3.3018C21.5725 3.38946 21.6752 3.48824 21.7642 3.59814L22.8451 3.35981L23.4158 4.62641L22.4921 5.28345C22.5165 5.36981 22.5261 5.43786 22.5209 5.48758C22.5156 5.53731 22.5087 5.60361 22.5 5.68649C22.4913 5.76936 22.4843 5.83567 22.4791 5.88539C22.4738 5.93512 22.4503 5.99968 22.4084 6.07907L23.1754 6.91381L22.3538 8.03407L21.3461 7.57623C21.2362 7.66523 21.1152 7.74049 20.983 7.80201C20.8509 7.86354 20.7076 7.91132 20.5532 7.94537L20.2445 8.96871L18.8522 8.82237ZM19.7835 6.65787C20.1316 6.69445 20.4385 6.6052 20.7041 6.39012C20.9697 6.17504 21.1208 5.89346 21.1574 5.54537C21.1939 5.19729 21.1047 4.89045 20.8896 4.62484C20.6745 4.35924 20.393 4.20815 20.0449 4.17156C19.6968 4.13498 19.3899 4.22423 19.1243 4.43931C18.8587 4.65439 18.7076 4.93597 18.6711 5.28405C18.6345 5.63214 18.7237 5.93898 18.9388 6.20458C19.1539 6.47019 19.4355 6.62128 19.7835 6.65787Z" fill="#C6102E"/>
</svg>
