<svg width="21" height="21" viewBox="0 0 21 21" fill="none" xmlns="http://www.w3.org/2000/svg">
<path d="M16.3297 3.66547C15.9547 4.04047 15.9547 4.60297 16.236 4.97797C17.6891 6.80609 18.4391 9.29047 17.7828 11.9155C16.986 14.9623 14.5953 17.2592 11.5484 17.8686C6.48595 18.853 1.98595 14.9155 1.98595 9.99359C1.98595 5.91547 5.03282 2.54047 9.0172 2.07172V4.08734C5.87657 4.60297 3.5797 7.55609 4.04845 10.9311C4.47032 13.5092 6.62657 15.6186 9.25157 15.9467C12.9078 16.4155 16.0016 13.5561 16.0016 9.99359C16.0016 8.72797 15.6266 7.60297 14.9703 6.61859C14.6422 6.14984 13.8922 6.10297 13.4703 6.52484C13.1422 6.85297 13.0953 7.41547 13.3297 7.79047C13.9391 8.72797 14.1734 9.89984 13.8453 11.1186C13.4703 12.478 12.2984 13.603 10.8922 13.8842C8.31407 14.4467 6.0172 12.5248 6.0172 9.99359C6.0172 8.11859 7.28282 6.57172 9.0172 6.14984V8.25922C8.40782 8.63422 7.98595 9.24359 7.98595 9.99359C7.98595 11.0717 8.92345 12.0092 10.0016 12.0092C11.0797 12.0092 12.0172 11.0717 12.0172 9.99359C12.0172 9.24359 11.5953 8.63422 10.9859 8.25922V0.712342C10.9859 0.290467 10.7047 0.00921662 10.2828 0.00921662C4.93907 -0.225158 0.29845 4.04047 0.0171999 9.38422C-0.3578 15.9467 5.4547 21.1967 12.0172 19.7905C15.9078 18.9467 18.9078 15.9936 19.7985 12.103C20.5016 8.96234 19.5641 5.96234 17.8297 3.75922C17.4547 3.29047 16.7516 3.24359 16.3297 3.66547V3.66547" fill="#C8102E"/>
</svg>
