<svg width="30" height="26" viewBox="0 0 30 26" fill="none" xmlns="http://www.w3.org/2000/svg">
<path d="M25.2667 18.5333L23.2 16.4667C24.1778 15.5556 24.9444 14.4778 25.5 13.2333C26.0556 11.9889 26.3333 10.6667 26.3333 9.26667C26.3333 7.86667 26.0556 6.55556 25.5 5.33333C24.9444 4.11111 24.1778 3.04444 23.2 2.13333L25.2667 0C26.5111 1.17778 27.5 2.56667 28.2333 4.16667C28.9667 5.76667 29.3333 7.46667 29.3333 9.26667C29.3333 11.0667 28.9667 12.7667 28.2333 14.3667C27.5 15.9667 26.5111 17.3556 25.2667 18.5333V18.5333M21 14.2667L18.8667 12.1333C19.2667 11.7556 19.5889 11.3278 19.8333 10.85C20.0778 10.3722 20.2 9.84444 20.2 9.26667C20.2 8.68889 20.0778 8.16111 19.8333 7.68333C19.5889 7.20556 19.2667 6.77778 18.8667 6.4L21 4.26667C21.7111 4.91111 22.2667 5.66111 22.6667 6.51667C23.0667 7.37222 23.2667 8.28889 23.2667 9.26667C23.2667 10.2444 23.0667 11.1611 22.6667 12.0167C22.2667 12.8722 21.7111 13.6222 21 14.2667V14.2667M10.6667 14.6C9.2 14.6 7.94444 14.0778 6.9 13.0333C5.85556 11.9889 5.33333 10.7333 5.33333 9.26667C5.33333 7.8 5.85556 6.54444 6.9 5.5C7.94444 4.45556 9.2 3.93333 10.6667 3.93333C12.1333 3.93333 13.3889 4.45556 14.4333 5.5C15.4778 6.54444 16 7.8 16 9.26667C16 10.7333 15.4778 11.9889 14.4333 13.0333C13.3889 14.0778 12.1333 14.6 10.6667 14.6V14.6M0 25.2667V21.5333C0 20.8 0.188889 20.1111 0.566667 19.4667C0.944444 18.8222 1.46667 18.3333 2.13333 18C3.26667 17.4222 4.54444 16.9333 5.96667 16.5333C7.38889 16.1333 8.95556 15.9333 10.6667 15.9333C12.3778 15.9333 13.9444 16.1333 15.3667 16.5333C16.7889 16.9333 18.0667 17.4222 19.2 18C19.8667 18.3333 20.3889 18.8222 20.7667 19.4667C21.1444 20.1111 21.3333 20.8 21.3333 21.5333V25.2667H0V25.2667M2.66667 22.6H18.6667V21.5333C18.6667 21.2889 18.6056 21.0667 18.4833 20.8667C18.3611 20.6667 18.2 20.5111 18 20.4C17.2 20 16.1722 19.6 14.9167 19.2C13.6611 18.8 12.2444 18.6 10.6667 18.6C9.08889 18.6 7.67222 18.8 6.41667 19.2C5.16111 19.6 4.13333 20 3.33333 20.4C3.13333 20.5111 2.97222 20.6667 2.85 20.8667C2.72778 21.0667 2.66667 21.2889 2.66667 21.5333V22.6V22.6M10.6667 11.9333C11.4 11.9333 12.0278 11.6722 12.55 11.15C13.0722 10.6278 13.3333 10 13.3333 9.26667C13.3333 8.53333 13.0722 7.90556 12.55 7.38333C12.0278 6.86111 11.4 6.6 10.6667 6.6C9.93333 6.6 9.30556 6.86111 8.78333 7.38333C8.26111 7.90556 8 8.53333 8 9.26667C8 10 8.26111 10.6278 8.78333 11.15C9.30556 11.6722 9.93333 11.9333 10.6667 11.9333V11.9333M10.6667 9.26667V9.26667V9.26667V9.26667V9.26667V9.26667V9.26667V9.26667V9.26667V9.26667M10.6667 22.6V22.6V22.6V22.6V22.6V22.6V22.6V22.6V22.6V22.6V22.6V22.6V22.6" fill="#C6102E"/>
</svg>
