<svg width="15" height="15" viewBox="0 0 15 15" fill="none" xmlns="http://www.w3.org/2000/svg">
<path d="M6.16875 9.8625L9.675 7.63125C9.8375 7.52698 9.91875 7.38216 9.91875 7.1968C9.91875 7.01143 9.8375 6.86875 9.675 6.76875L6.16875 4.5375C5.99375 4.4375 5.82187 4.43455 5.65312 4.52866C5.48437 4.62277 5.4 4.76946 5.4 4.96875V9.43125C5.4 9.63054 5.48437 9.77723 5.65312 9.87134C5.82187 9.96545 5.99375 9.9625 6.16875 9.8625V9.8625M7.20517 14.4C6.21422 14.4 5.28125 14.2125 4.40625 13.8375C3.53125 13.4625 2.76562 12.9469 2.10938 12.2906C1.45312 11.6344 0.9375 10.869 0.5625 9.99453C0.1875 9.12005 0 8.18568 0 7.19141C0 6.19714 0.1875 5.26562 0.5625 4.39687C0.9375 3.52812 1.45312 2.76562 2.10938 2.10938C2.76562 1.45312 3.53099 0.9375 4.40547 0.5625C5.27995 0.1875 6.21432 0 7.20859 0C8.20286 0 9.13438 0.1875 10.0031 0.5625C10.8719 0.9375 11.6344 1.45312 12.2906 2.10938C12.9469 2.76562 13.4625 3.52953 13.8375 4.40108C14.2125 5.27264 14.4 6.20389 14.4 7.19483C14.4 8.18578 14.2125 9.11875 13.8375 9.99375C13.4625 10.8687 12.9469 11.6344 12.2906 12.2906C11.6344 12.9469 10.8705 13.4625 9.99892 13.8375C9.12736 14.2125 8.19611 14.4 7.20517 14.4V14.4M7.2 13.05C8.825 13.05 10.2062 12.4813 11.3438 11.3438C12.4813 10.2062 13.05 8.825 13.05 7.2C13.05 5.575 12.4813 4.19375 11.3438 3.05625C10.2062 1.91875 8.825 1.35 7.2 1.35C5.575 1.35 4.19375 1.91875 3.05625 3.05625C1.91875 4.19375 1.35 5.575 1.35 7.2C1.35 8.825 1.91875 10.2062 3.05625 11.3438C4.19375 12.4813 5.575 13.05 7.2 13.05V13.05M7.2 7.2V7.2V7.2V7.2V7.2V7.2V7.2V7.2V7.2V7.2" fill="#C8102E"/>
</svg>
