<svg width="36" height="33" viewBox="0 0 36 33" fill="none" xmlns="http://www.w3.org/2000/svg">
<path d="M16.4625 32.55L23.3625 12.825H29.1L36 32.55H30.9375L29.925 29.55H22.4625L21.45 32.55H16.4625V32.55M5.4 28.3875L2.0625 25.05L9.4125 17.7C8.2875 16.525 7.3375 15.3687 6.5625 14.2312C5.7875 13.0937 5.15 11.925 4.65 10.725H9.975C10.275 11.3 10.6625 11.8875 11.1375 12.4875C11.6125 13.0875 12.15 13.7125 12.75 14.3625C13.525 13.4875 14.3 12.4125 15.075 11.1375C15.85 9.8625 16.425 8.725 16.8 7.725H0V3H10.5V0H15.225V3H25.725V7.725H21.9C21.325 9.4 20.4937 11.175 19.4062 13.05C18.3188 14.925 17.1875 16.4875 16.0125 17.7375L17.8125 19.575L16.05 24.5625L12.675 21.1125L5.4 28.3875V28.3875M23.925 25.2H28.425L26.175 18.525L23.925 25.2V25.2" fill="white"/>
</svg>
