<svg width="32" height="20" viewBox="0 0 32 20" fill="none" xmlns="http://www.w3.org/2000/svg">
<path d="M0 15.9869C0 18.1955 1.79045 19.986 3.99909 19.986C6.20773 19.986 7.99818 18.1955 7.99818 15.9869V11.9973C7.99818 9.78863 6.20773 7.99818 3.99909 7.99818C1.79045 7.99818 0 9.78863 0 11.9973V15.9869Z" fill="#FFB800"/>
<path d="M11.9878 15.9869C11.9878 18.1955 13.7783 19.986 15.9869 19.986C18.1955 19.986 19.986 18.1955 19.986 15.9869V7.98872C19.986 5.78009 18.1955 3.98964 15.9869 3.98964C13.7783 3.98964 11.9878 5.78009 11.9878 7.98873V15.9869Z" fill="#FFB800"/>
<path d="M23.9756 15.9869C23.9756 18.1955 25.7661 19.986 27.9747 19.986C30.1834 19.986 31.9738 18.1955 31.9738 15.9869V3.99908C31.9738 1.79045 30.1834 0 27.9747 0C25.7661 0 23.9756 1.79045 23.9756 3.99909V15.9869Z" fill="#FFB800"/>
</svg>
