<svg width="25" height="24" viewBox="0 0 25 24" fill="none" xmlns="http://www.w3.org/2000/svg">
<path d="M2.5 23.75C1.8125 23.75 1.22396 23.5052 0.734375 23.0156C0.244792 22.526 0 21.9375 0 21.25V16.25H8.75V18.75H16.25V16.25H25V21.25C25 21.9375 24.7552 22.526 24.2656 23.0156C23.776 23.5052 23.1875 23.75 22.5 23.75H2.5V23.75M11.25 16.25V13.75H13.75V16.25H11.25V16.25M0 13.75V7.5C0 6.8125 0.244792 6.22396 0.734375 5.73438C1.22396 5.24479 1.8125 5 2.5 5H7.5V2.5C7.5 1.8125 7.74479 1.22396 8.23438 0.734375C8.72396 0.244792 9.3125 0 10 0H15C15.6875 0 16.276 0.244792 16.7656 0.734375C17.2552 1.22396 17.5 1.8125 17.5 2.5V5H22.5C23.1875 5 23.776 5.24479 24.2656 5.73438C24.7552 6.22396 25 6.8125 25 7.5V13.75H16.25V11.25H8.75V13.75H0V13.75M10 5H15V2.5V2.5V2.5H10V2.5V2.5V5V5" fill="#C8102E"/>
</svg>
