<svg width="28" height="28" viewBox="0 0 28 28" fill="none" xmlns="http://www.w3.org/2000/svg">
<g clip-path="url(#clip0_2041_5013)">
<rect width="28" height="28" rx="6" fill="#FF73D4"/>
<path d="M7.2052 7.02304C7.68509 7.3164 7.7166 8.02917 7.22755 8.35539L3.60004 10.7748C3.07842 11.1225 2.37854 10.7542 2.36917 10.1273L2.30944 6.10869C2.30107 5.53409 2.88854 5.1419 3.41583 5.3704L7.10308 6.96961L7.2052 7.02304Z" fill="#F04F3F" stroke="white"/>
<path d="M24.2418 5.29144C24.7453 5.16436 25.2494 5.55936 25.224 6.09774L25.0331 10.1125C25.0034 10.7387 24.2925 11.0836 23.7824 10.7191L20.2354 8.18373C19.7252 7.81909 19.8215 7.0342 20.4046 6.80343L24.1415 5.32428L24.2418 5.29144Z" fill="#F04F3F" stroke="white"/>
<path d="M16.4515 7.36477C17.1919 7.89188 18.9589 8.47172 20.1035 6.57419C21.5342 4.20229 21.3081 2.31985 20.1035 1.94336C18.8988 1.56687 15.1713 2.35745 16.4515 4.05165C17.7317 5.74584 19.1625 4.99288 19.313 4.05165" stroke="#FFC704" stroke-linecap="round"/>
<path d="M10.8641 7.36477C10.1237 7.89188 8.35673 8.47172 7.21214 6.57419C5.7814 4.20229 6.00746 2.31985 7.21214 1.94336C8.41681 1.56687 12.1443 2.35745 10.8641 4.05165C9.58392 5.74584 8.15316 4.99288 8.00257 4.05165" stroke="#FFC704" stroke-linecap="round"/>
<rect x="-1.42773" y="7.11914" width="30.8555" height="24.36" rx="12.18" fill="#F04F3F" stroke="white"/>
<rect x="3.66821" y="14" width="9.06759" height="9.06759" rx="4.53379" fill="white"/>
<rect x="15.2335" y="13.7206" width="8.98071" height="8.98071" rx="4.49036" fill="white"/>
<rect x="17.8325" y="17.1727" width="5.01388" height="5.01388" rx="2.50694" fill="black"/>
<rect x="6.45264" y="17.1727" width="5.01388" height="5.01388" rx="2.50694" fill="black"/>
</g>
<defs>
<clipPath id="clip0_2041_5013">
<rect width="28" height="28" rx="6" fill="white"/>
</clipPath>
</defs>
</svg>
