<svg width="42" height="42" viewBox="0 0 42 42" fill="none" xmlns="http://www.w3.org/2000/svg">
<path d="M33.8932 32.6744C34.6616 31.0797 32.6848 20.4299 31.7242 16.9969L20.8005 10.0894L9.85645 16.9969C8.89587 20.4298 6.86847 31.0796 7.63687 32.6744C8.59743 34.6676 9.8783 34.9999 11.1591 34.9999H30.371C31.6518 34.9999 32.9326 34.6677 33.8932 32.6744Z" fill="#65DAFF"/>
<path d="M20.781 7.00025C21.3586 6.99249 21.9436 7.16459 22.4467 7.53094L35.7252 17.2019C36.9632 18.1037 37.2368 19.8395 36.3364 21.0794C35.4357 22.3193 33.7017 22.5939 32.4634 21.6921L21.4726 13.6872C21.0515 13.3805 20.4807 13.3805 20.0596 13.6872L9.06948 21.6921C7.83124 22.5936 6.09775 22.3192 5.19723 21.0794C4.29672 19.8395 4.57029 18.1037 5.80842 17.2019L19.0868 7.53094C19.5898 7.16475 20.1745 6.9926 20.7519 7.00025H20.781Z" fill="#FF0034"/>
<path d="M16.5668 30.8C16.5668 28.4804 18.4472 26.6 20.7668 26.6V26.6C23.0864 26.6 24.9668 28.4804 24.9668 30.8V35H16.5668V30.8Z" fill="#009EF9"/>
<rect x="15.1667" y="20.3" width="11.2" height="4.2" rx="2.1" fill="#007DC6"/>
</svg>
