<svg width="42" height="42" viewBox="0 0 42 42" fill="none" xmlns="http://www.w3.org/2000/svg">
<g clip-path="url(#clip0_2045_8636)">
<path d="M34.603 21C34.603 28.732 28.335 35 20.603 35C12.871 35 6.60297 28.732 6.60297 21C6.60297 13.268 12.871 7 20.603 7C28.335 7 34.603 13.268 34.603 21Z" fill="#FFC200"/>
<path d="M33.5238 32.4486C33.5898 33.1742 32.9819 33.7821 32.2563 33.7161L24.576 33.0179L32.8256 24.7683L33.5238 32.4486Z" fill="#FFC200"/>
<mask id="mask0_2045_8636" style="mask-type:alpha" maskUnits="userSpaceOnUse" x="11" y="11" width="19" height="20">
<circle cx="20.603" cy="21" r="9.33333" fill="#FF8001"/>
</mask>
<g mask="url(#mask0_2045_8636)">
<circle cx="20.603" cy="21" r="10.5" fill="#FF7B23"/>
<path d="M15.2072 11.6667C15.2072 10.378 16.2518 9.33337 17.5405 9.33337H18.1238C19.4125 9.33337 20.4572 10.378 20.4572 11.6667V14C20.4572 15.2887 19.4125 16.3334 18.1238 16.3334H17.5405C16.2518 16.3334 15.2072 15.2887 15.2072 14V11.6667Z" fill="white"/>
<path d="M20.7488 11.6667C20.7488 10.378 21.7935 9.33337 23.0822 9.33337H23.6655C24.9542 9.33337 25.9988 10.378 25.9988 11.6667V14C25.9988 15.2887 24.9542 16.3334 23.6655 16.3334H23.0822C21.7935 16.3334 20.7488 15.2887 20.7488 14V11.6667Z" fill="white"/>
<path d="M18.3863 22.167C19.2272 22.167 19.9986 22.4637 20.6021 22.958C21.2058 22.4632 21.9784 22.167 22.8199 22.167H23.5201C25.4529 22.1672 27.0201 23.7341 27.0201 25.667C27.0199 27.5997 25.4528 29.1668 23.5201 29.167H22.8199C21.9781 29.167 21.2059 28.8691 20.6021 28.374C19.9985 28.8686 19.2275 29.167 18.3863 29.167H17.6861C15.7533 29.1669 14.1863 27.5998 14.1861 25.667C14.1861 23.7341 15.7532 22.1671 17.6861 22.167H18.3863Z" fill="#DE530C"/>
<rect x="9.51965" y="25.6667" width="22.1667" height="7" rx="2" fill="white"/>
</g>
</g>
<defs>
<clipPath id="clip0_2045_8636">
<rect width="42" height="42" fill="white"/>
</clipPath>
</defs>
</svg>
