<svg width="24" height="24" viewBox="0 0 24 24" fill="none" xmlns="http://www.w3.org/2000/svg">
<path d="M15.9963 19.9954V3.99909C15.9963 3.46877 15.7857 2.96018 15.4107 2.5852C15.0357 2.21021 14.5271 1.99954 13.9968 1.99954H9.99771C9.4674 1.99954 8.95881 2.21021 8.58382 2.5852C8.20884 2.96018 7.99817 3.46877 7.99817 3.99909V19.9954" stroke="#FFB800" stroke-width="1.99954" stroke-linecap="round" stroke-linejoin="round"/>
<path d="M19.9954 5.99863H3.99906C2.89474 5.99863 1.99951 6.89385 1.99951 7.99817V17.9959C1.99951 19.1002 2.89474 19.9954 3.99906 19.9954H19.9954C21.0997 19.9954 21.995 19.1002 21.995 17.9959V7.99817C21.995 6.89385 21.0997 5.99863 19.9954 5.99863Z" stroke="#FFB800" stroke-width="1.99954" stroke-linecap="round" stroke-linejoin="round"/>
</svg>
