<svg xmlns="http://www.w3.org/2000/svg" width="28" height="20" fill="none" viewBox="0 0 28 20"><path fill="#9e001f" d="M6.875 20q-2.844 0-4.86-1.969Q0 16.063 0 13.22q0-2.438 1.469-4.344Q2.937 6.97 5.312 6.438q.782-2.876 3.125-4.657Q10.783.001 13.75 0q3.656 0 6.203 2.547T22.5 8.75q2.156.25 3.578 1.86 1.422 1.609 1.422 3.765 0 2.344-1.64 3.984T21.874 20H15a2.4 2.4 0 0 1-1.766-.734A2.4 2.4 0 0 1 12.5 17.5v-6.437L10.5 13l-1.75-1.75 5-5 5 5L17 13l-2-1.937V17.5h6.875q1.313 0 2.219-.906T25 14.375t-.906-2.219-2.219-.906H20v-2.5q0-2.594-1.828-4.422T13.75 2.5 9.328 4.328 7.5 8.75h-.625q-1.813 0-3.094 1.281T2.5 13.125t1.281 3.094T6.875 17.5H10V20zm6.875-8.75"/></svg>