<svg width="27" height="27" viewBox="0 0 27 27" fill="none" xmlns="http://www.w3.org/2000/svg">
<path d="M0.366667 10.9259L5.96667 5.3259C6.27778 5.01478 6.64444 4.79256 7.06667 4.65923C7.48889 4.5259 7.92222 4.50367 8.36667 4.59256L10.1 4.95923C8.9 6.38145 7.95556 7.67034 7.26667 8.8259C6.57778 9.98145 5.91111 11.3815 5.26667 13.0259L0.366667 10.9259V10.9259M7.2 13.9592C7.71111 12.3592 8.40556 10.8481 9.28333 9.4259C10.1611 8.00367 11.2222 6.67034 12.4667 5.4259C14.4222 3.47034 16.6556 2.00923 19.1667 1.04256C21.6778 0.0758954 24.0222 -0.218549 26.2 0.159229C26.5778 2.33701 26.2889 4.68145 25.3333 7.19256C24.3778 9.70367 22.9222 11.937 20.9667 13.8926C19.7444 15.1148 18.4111 16.1759 16.9667 17.0759C15.5222 17.9759 14 18.6815 12.4 19.1926L7.2 13.9592V13.9592M16.4 9.95923C16.9111 10.4703 17.5389 10.7259 18.2833 10.7259C19.0278 10.7259 19.6556 10.4703 20.1667 9.95923C20.6778 9.44812 20.9333 8.82034 20.9333 8.0759C20.9333 7.33145 20.6778 6.70367 20.1667 6.19256C19.6556 5.68145 19.0278 5.4259 18.2833 5.4259C17.5389 5.4259 16.9111 5.68145 16.4 6.19256C15.8889 6.70367 15.6333 7.33145 15.6333 8.0759C15.6333 8.82034 15.8889 9.44812 16.4 9.95923V9.95923M15.4667 25.9926L13.3333 21.0926C14.9778 20.4481 16.3833 19.7815 17.55 19.0926C18.7167 18.4037 20.0111 17.4592 21.4333 16.2592L21.7667 17.9926C21.8556 18.437 21.8333 18.8759 21.7 19.3092C21.5667 19.7426 21.3444 20.1148 21.0333 20.4259L15.4667 25.9926V25.9926M2.5 18.2259C3.27778 17.4481 4.22222 17.0537 5.33333 17.0426C6.44444 17.0315 7.38889 17.4148 8.16667 18.1926C8.94444 18.9703 9.33333 19.9148 9.33333 21.0259C9.33333 22.137 8.94444 23.0815 8.16667 23.8592C7.61111 24.4148 6.68333 24.8926 5.38333 25.2926C4.08333 25.6926 2.28889 26.0481 0 26.3592C0.311111 24.0703 0.666667 22.2815 1.06667 20.9926C1.46667 19.7037 1.94444 18.7815 2.5 18.2259V18.2259" fill="#9E001F"/>
</svg>
