<svg width="24" height="24" viewBox="0 0 24 24" fill="none" xmlns="http://www.w3.org/2000/svg">
<path d="M21.4151 10.9195C21.5941 10.8406 21.746 10.7108 21.852 10.5464C21.9579 10.382 22.0133 10.1901 22.0113 9.99446C22.0093 9.79885 21.9499 9.60814 21.8406 9.44593C21.7312 9.28373 21.5767 9.15717 21.3961 9.08193L12.8271 5.17882C12.5666 5.06 12.2836 4.9985 11.9973 4.9985C11.711 4.9985 11.428 5.06 11.1675 5.17882L2.59942 9.07793C2.42143 9.15589 2.27001 9.28402 2.16368 9.44666C2.05736 9.60931 2.00073 9.79941 2.00073 9.99373C2.00073 10.188 2.05736 10.3781 2.16368 10.5408C2.27001 10.7034 2.42143 10.8316 2.59942 10.9095L11.1675 14.8166C11.428 14.9355 11.711 14.9969 11.9973 14.9969C12.2836 14.9969 12.5666 14.9355 12.8271 14.8166L21.4151 10.9195Z" stroke="#FFB800" stroke-width="1.99954" stroke-linecap="round" stroke-linejoin="round"/>
<path d="M21.995 9.99773V15.9964" stroke="#FFB800" stroke-width="1.99954" stroke-linecap="round" stroke-linejoin="round"/>
<path d="M5.99866 12.4972V15.9964C5.99866 16.7918 6.63065 17.5547 7.75562 18.1172C8.88058 18.6797 10.4064 18.9957 11.9973 18.9957C13.5882 18.9957 15.114 18.6797 16.239 18.1172C17.3639 17.5547 17.9959 16.7918 17.9959 15.9964V12.4972" stroke="#FFB800" stroke-width="1.99954" stroke-linecap="round" stroke-linejoin="round"/>
</svg>
