<svg width="14" height="14" viewBox="0 0 14 14" fill="none" xmlns="http://www.w3.org/2000/svg">
<path d="M6.25 12.5V9.91667C5.66667 9.80556 5.13542 9.58333 4.65625 9.25C4.17708 8.91667 3.79861 8.48611 3.52083 7.95833C2.5206 7.83965 1.68373 7.40776 1.01024 6.66267C0.336746 5.91758 0 5.04391 0 4.04167V3.5C0 3.0875 0.146875 2.73437 0.440625 2.44063C0.734375 2.14688 1.0875 2 1.5 2H3V1.5C3 1.0875 3.14688 0.734375 3.44062 0.440626C3.73437 0.146875 4.0875 0 4.5 0H9.5C9.9125 0 10.2656 0.146875 10.5594 0.440626C10.8531 0.734375 11 1.0875 11 1.5V2H12.5C12.9125 2 13.2656 2.14688 13.5594 2.44063C13.8531 2.73437 14 3.0875 14 3.5V4C14 5.01291 13.6633 5.89587 12.9898 6.64889C12.3163 7.4019 11.4794 7.83838 10.4792 7.95833C10.2014 8.48611 9.82292 8.91667 9.34375 9.25C8.86458 9.58333 8.33333 9.80556 7.75 9.91667V12.5H10.25C10.4625 12.5 10.6406 12.5715 10.7844 12.7144C10.9281 12.8573 11 13.0344 11 13.2456C11 13.4569 10.9281 13.6354 10.7844 13.7812C10.6406 13.9271 10.4625 14 10.25 14H3.75C3.5375 14 3.35938 13.9285 3.21563 13.7856C3.07187 13.6427 3 13.4656 3 13.2544C3 13.0431 3.07187 12.8646 3.21563 12.7188C3.35938 12.5729 3.5375 12.5 3.75 12.5H6.25V12.5M3 6.25V3.5H1.5V3.5V3.5V4C1.5 4.48611 1.63542 4.93403 1.90625 5.34375C2.17708 5.75347 2.54167 6.05556 3 6.25V6.25M7 8.5C7.69444 8.5 8.28472 8.25694 8.77083 7.77083C9.25694 7.28472 9.5 6.69444 9.5 6V1.5V1.5V1.5H4.5V1.5V1.5V6C4.5 6.69444 4.74306 7.28472 5.22917 7.77083C5.71528 8.25694 6.30556 8.5 7 8.5V8.5M11 6.25C11.4583 6.05556 11.8229 5.75347 12.0938 5.34375C12.3646 4.93403 12.5 4.48611 12.5 4V3.5V3.5V3.5H11V6.25V6.25M7 5V5V5V5V5V5V5V5V5V5V5V5V5" fill="#C8102E"/>
</svg>
