<svg width="390" height="331" viewBox="0 0 390 331" fill="none" xmlns="http://www.w3.org/2000/svg">
<g clip-path="url(#clip0_1859_1496)">
<rect width="390" height="331" fill="url(#paint0_linear_1859_1496)"/>
<g opacity="0.2">
<path d="M298.25 118.5L323.25 48.5L368.25 93.5L298.25 118.5V118.5M314.75 102L350 89.5L327.25 66.75L314.75 102V102M361 71.25L355.75 66L383.75 38C386.417 35.3333 389.625 34 393.375 34C397.125 34 400.333 35.3333 403 38L406 41L400.75 46.25L397.75 43.25C396.583 42.0833 395.125 41.5 393.375 41.5C391.625 41.5 390.167 42.0833 389 43.25L361 71.25V71.25M341 51.25L335.75 46L338.75 43C339.917 41.8333 340.5 40.4167 340.5 38.75C340.5 37.0833 339.917 35.6667 338.75 34.5L335.5 31.25L340.75 26L344 29.25C346.667 31.9167 348 35.0833 348 38.75C348 42.4167 346.667 45.5833 344 48.25L341 51.25V51.25M351 61.25L345.75 56L363.75 38C364.917 36.8333 365.5 35.375 365.5 33.625C365.5 31.875 364.917 30.4167 363.75 29.25L355.75 21.25L361 16L369 24C371.667 26.6667 373 29.875 373 33.625C373 37.375 371.667 40.5833 369 43.25L351 61.25V61.25M371 81.25L365.75 76L373.75 68C376.417 65.3333 379.625 64 383.375 64C387.125 64 390.333 65.3333 393 68L401 76L395.75 81.25L387.75 73.25C386.583 72.0833 385.125 71.5 383.375 71.5C381.625 71.5 380.167 72.0833 379 73.25L371 81.25V81.25M314.75 102V102V102V102V102" fill="#C6102E"/>
</g>
</g>
<defs>
<linearGradient id="paint0_linear_1859_1496" x1="195" y1="0" x2="195" y2="331" gradientUnits="userSpaceOnUse">
<stop stop-color="#C6102E" stop-opacity="0.1"/>
<stop offset="1" stop-color="#C6102E" stop-opacity="0.02"/>
</linearGradient>
<clipPath id="clip0_1859_1496">
<rect width="390" height="331" fill="white"/>
</clipPath>
</defs>
</svg>
